<svg width="42" height="40" viewBox="0 0 42 40" fill="none" xmlns="http://www.w3.org/2000/svg">
<g filter="url(#filter0_b_327_594)">
<rect x="3" y="2" width="36" height="36" rx="18" fill="#E2FFF8" fill-opacity="0.01"/>
<rect x="3" y="2" width="36" height="36" rx="18" fill="url(#paint0_radial_327_594)"/>
<rect x="3.5" y="2.5" width="35" height="35" rx="17.5" stroke="#3FEAC1" stroke-opacity="0.1"/>
</g>
<path fill-rule="evenodd" clip-rule="evenodd" d="M26.3398 16.9882C26.3398 17.5842 26.8231 18.0682 27.4198 18.0682C28.0158 18.0682 28.4998 17.5842 28.4998 16.9882C28.4998 16.3923 28.0158 15.9082 27.4198 15.9082C26.8231 15.9082 26.3398 16.3923 26.3398 16.9882Z" stroke="#3FEAC1" stroke-width="1.25" stroke-linecap="round" stroke-linejoin="round"/>
<path fill-rule="evenodd" clip-rule="evenodd" d="M21.7793 13.9579C21.7793 14.5547 22.2625 15.0379 22.8594 15.0379C23.4553 15.0379 23.9394 14.5547 23.9394 13.9579C23.9394 13.362 23.4553 12.8779 22.8594 12.8779C22.2625 12.8779 21.7793 13.362 21.7793 13.9579Z" stroke="#3FEAC1" stroke-width="1.25" stroke-linecap="round" stroke-linejoin="round"/>
<path fill-rule="evenodd" clip-rule="evenodd" d="M18.8612 14.996C18.8612 15.592 18.3779 16.076 17.7812 16.076C17.1852 16.076 16.7012 15.592 16.7012 14.996C16.7012 14.4001 17.1852 13.916 17.7812 13.916C18.3779 13.916 18.8612 14.4001 18.8612 14.996Z" stroke="#3FEAC1" stroke-width="1.25" stroke-linecap="round" stroke-linejoin="round"/>
<path fill-rule="evenodd" clip-rule="evenodd" d="M15.66 18.0527C15.66 18.6486 15.1768 19.1327 14.58 19.1327C13.9841 19.1327 13.5 18.6486 13.5 18.0527C13.5 17.4559 13.9841 16.9727 14.58 16.9727C15.1768 16.9727 15.66 17.4559 15.66 18.0527Z" stroke="#3FEAC1" stroke-width="1.25" stroke-linecap="round" stroke-linejoin="round"/>
<path d="M19.5018 18.6998V17.1698L18.3594 15.9082" stroke="#3FEAC1" stroke-width="1.25" stroke-linecap="round" stroke-linejoin="round"/>
<path d="M22.8594 15.0371L22.8595 18.2237" stroke="#3FEAC1" stroke-width="1.25" stroke-linecap="round" stroke-linejoin="round"/>
<path d="M25.4199 19.4433L26.8437 17.9004" stroke="#3FEAC1" stroke-width="1.25" stroke-linecap="round" stroke-linejoin="round"/>
<path d="M20.36 23.9551C20.9227 23.8724 21.4959 23.9559 22.0643 23.9422C23.3827 23.9105 24.4157 22.7965 25.4195 22.0408C25.9319 21.6549 26.6503 21.7059 27.1035 22.1608C27.6071 22.6659 27.6071 23.4849 27.1035 23.99C26.0195 25.0789 25.0619 26.0883 23.5935 26.6592C21.5543 27.4522 19.6627 27.0678 17.5984 26.6592C16.7997 26.5011 15.2908 26.4922 14.4824 26.4922" stroke="#3FEAC1" stroke-width="1.25" stroke-linecap="round" stroke-linejoin="round"/>
<path d="M20.3592 23.9301H21.4724C22.267 23.9301 22.9084 23.3585 22.9084 22.5639C22.9084 21.9039 22.4616 21.3761 21.8219 21.2147C20.9048 20.9853 19.9903 20.8044 19.0335 20.8271C17.5173 20.8644 15.684 21.7093 14.4824 22.5136" stroke="#3FEAC1" stroke-width="1.25" stroke-linecap="round" stroke-linejoin="round"/>
<g filter="url(#filter1_f_327_594)">
<path fill-rule="evenodd" clip-rule="evenodd" d="M26.3398 16.9882C26.3398 17.5842 26.8231 18.0682 27.4198 18.0682C28.0158 18.0682 28.4998 17.5842 28.4998 16.9882C28.4998 16.3923 28.0158 15.9082 27.4198 15.9082C26.8231 15.9082 26.3398 16.3923 26.3398 16.9882Z" stroke="#3FEAC1" stroke-width="1.25" stroke-linecap="round" stroke-linejoin="round"/>
<path fill-rule="evenodd" clip-rule="evenodd" d="M21.7793 13.9579C21.7793 14.5547 22.2625 15.0379 22.8594 15.0379C23.4553 15.0379 23.9394 14.5547 23.9394 13.9579C23.9394 13.362 23.4553 12.8779 22.8594 12.8779C22.2625 12.8779 21.7793 13.362 21.7793 13.9579Z" stroke="#3FEAC1" stroke-width="1.25" stroke-linecap="round" stroke-linejoin="round"/>
<path fill-rule="evenodd" clip-rule="evenodd" d="M18.8612 14.996C18.8612 15.592 18.3779 16.076 17.7812 16.076C17.1852 16.076 16.7012 15.592 16.7012 14.996C16.7012 14.4001 17.1852 13.916 17.7812 13.916C18.3779 13.916 18.8612 14.4001 18.8612 14.996Z" stroke="#3FEAC1" stroke-width="1.25" stroke-linecap="round" stroke-linejoin="round"/>
<path fill-rule="evenodd" clip-rule="evenodd" d="M15.66 18.0527C15.66 18.6486 15.1768 19.1327 14.58 19.1327C13.9841 19.1327 13.5 18.6486 13.5 18.0527C13.5 17.4559 13.9841 16.9727 14.58 16.9727C15.1768 16.9727 15.66 17.4559 15.66 18.0527Z" stroke="#3FEAC1" stroke-width="1.25" stroke-linecap="round" stroke-linejoin="round"/>
<path d="M19.5018 18.6998V17.1698L18.3594 15.9082" stroke="#3FEAC1" stroke-width="1.25" stroke-linecap="round" stroke-linejoin="round"/>
<path d="M22.8594 15.0371L22.8595 18.2237" stroke="#3FEAC1" stroke-width="1.25" stroke-linecap="round" stroke-linejoin="round"/>
<path d="M25.4199 19.4433L26.8437 17.9004" stroke="#3FEAC1" stroke-width="1.25" stroke-linecap="round" stroke-linejoin="round"/>
<path d="M20.36 23.9551C20.9227 23.8724 21.4959 23.9559 22.0643 23.9422C23.3827 23.9105 24.4157 22.7965 25.4195 22.0408C25.9319 21.6549 26.6503 21.7059 27.1035 22.1608C27.6071 22.6659 27.6071 23.4849 27.1035 23.99C26.0195 25.0789 25.0619 26.0883 23.5935 26.6592C21.5543 27.4522 19.6627 27.0678 17.5984 26.6592C16.7997 26.5011 15.2908 26.4922 14.4824 26.4922" stroke="#3FEAC1" stroke-width="1.25" stroke-linecap="round" stroke-linejoin="round"/>
<path d="M20.3592 23.9301H21.4724C22.267 23.9301 22.9084 23.3585 22.9084 22.5639C22.9084 21.9039 22.4616 21.3761 21.8219 21.2147C20.9048 20.9853 19.9903 20.8044 19.0335 20.8271C17.5173 20.8644 15.684 21.7093 14.4824 22.5136" stroke="#3FEAC1" stroke-width="1.25" stroke-linecap="round" stroke-linejoin="round"/>
</g>
<defs>
<filter id="filter0_b_327_594" x="-147" y="-148" width="336" height="336" filterUnits="userSpaceOnUse" color-interpolation-filters="sRGB">
<feFlood flood-opacity="0" result="BackgroundImageFix"/>
<feGaussianBlur in="BackgroundImageFix" stdDeviation="75"/>
<feComposite in2="SourceAlpha" operator="in" result="effect1_backgroundBlur_327_594"/>
<feBlend mode="normal" in="SourceGraphic" in2="effect1_backgroundBlur_327_594" result="shape"/>
</filter>
<filter id="filter1_f_327_594" x="-1" y="-2" width="44" height="44" filterUnits="userSpaceOnUse" color-interpolation-filters="sRGB">
<feFlood flood-opacity="0" result="BackgroundImageFix"/>
<feBlend mode="normal" in="SourceGraphic" in2="BackgroundImageFix" result="shape"/>
<feGaussianBlur stdDeviation="6" result="effect1_foregroundBlur_327_594"/>
</filter>
<radialGradient id="paint0_radial_327_594" cx="0" cy="0" r="1" gradientUnits="userSpaceOnUse" gradientTransform="translate(21 20) rotate(45) scale(25.4558)">
<stop offset="0.496666" stop-color="#3FEAC1" stop-opacity="0"/>
<stop offset="1" stop-color="#3FEAC1" stop-opacity="0.03"/>
</radialGradient>
</defs>
</svg>
