<?xml version="1.0" encoding="UTF-8"?><svg id="Layer_2" xmlns="http://www.w3.org/2000/svg" viewBox="0 0 292 80"><defs><style>.cls-1{fill:#fff;}.cls-2{opacity:.4;}</style></defs><g id="Layer_1-2"><g><g><rect class="cls-2" x=".5" y=".5" width="291" height="79" rx="5.9" ry="5.9"/><path class="cls-1" d="M285.6,1c2.98,0,5.4,2.42,5.4,5.4V73.6c0,2.98-2.42,5.4-5.4,5.4H6.4c-2.98,0-5.4-2.42-5.4-5.4V6.4C1,3.42,3.42,1,6.4,1H285.6m0-1H6.4C2.87,0,0,2.87,0,6.4V73.6c0,3.53,2.87,6.4,6.4,6.4H285.6c3.53,0,6.4-2.87,6.4-6.4V6.4c0-3.53-2.87-6.4-6.4-6.4h0Z"/></g><g><g><path class="cls-1" d="M79.16,51.38c-.09-.53-.53-1.36-1.75-1.36-.91,0-1.51,.58-1.51,1.22,0,.53,.34,.95,1.05,1.09l1.35,.26c1.75,.34,2.69,1.48,2.69,2.84,0,1.48-1.24,2.98-3.48,2.98-2.56,0-3.69-1.65-3.84-3.02l1.74-.46c.08,.95,.75,1.81,2.11,1.81,1.01,0,1.56-.5,1.56-1.18,0-.56-.42-.99-1.17-1.14l-1.35-.27c-1.54-.31-2.53-1.31-2.53-2.76,0-1.71,1.54-3.02,3.36-3.02,2.34,0,3.24,1.41,3.45,2.5l-1.69,.52Z"/><path class="cls-1" d="M83.52,58.21v-9.64h6.04v1.77h-4.16v2.2h3.77v1.67h-3.77v2.23h4.16v1.77h-6.04Z"/><path class="cls-1" d="M91.79,53.39c0-3.07,2.33-5.03,4.91-5.03s4.04,1.63,4.42,3.2l-1.77,.56c-.23-.92-.98-1.94-2.65-1.94-1.44,0-2.96,1.03-2.96,3.22,0,2.05,1.44,3.18,2.99,3.18,1.65,0,2.45-1.07,2.71-1.97l1.75,.53c-.37,1.48-1.75,3.28-4.46,3.28s-4.94-1.94-4.94-5.02Z"/><path class="cls-1" d="M103.53,54.8v-6.23h1.88v6.09c0,1.26,.71,1.93,1.82,1.93s1.84-.67,1.84-1.93v-6.09h1.88v6.23c0,2.37-1.65,3.63-3.71,3.63s-3.7-1.26-3.7-3.63Z"/><path class="cls-1" d="M116.87,54.5h-.98v3.71h-1.89v-9.64h3.77c1.88,0,3.07,1.29,3.07,2.96,0,1.35-.79,2.37-2.05,2.73l2.07,3.94h-2.09l-1.89-3.71Zm.54-1.62c.95,0,1.51-.54,1.51-1.33s-.56-1.35-1.51-1.35h-1.52v2.68h1.52Z"/><path class="cls-1" d="M123.45,58.21v-9.64h6.04v1.77h-4.16v2.2h3.77v1.67h-3.77v2.23h4.16v1.77h-6.04Z"/><path class="cls-1" d="M132.32,58.21v-9.64h3.45c2.75,0,4.76,1.78,4.76,4.83s-2.03,4.81-4.77,4.81h-3.44Zm3.37-1.74c1.58,0,2.9-.98,2.9-3.07s-1.31-3.09-2.88-3.09h-1.51v6.16h1.5Z"/><path class="cls-1" d="M158.21,48.57h1.92l-2.67,9.64h-1.93l-2.2-6.87-2.2,6.87h-1.96l-2.68-9.64h1.99l1.77,6.64,2.14-6.64h1.94l2.15,6.66,1.74-6.66Z"/><path class="cls-1" d="M162.35,58.21v-9.64h1.9v9.64h-1.9Z"/><path class="cls-1" d="M171.46,50.35v7.86h-1.89v-7.86h-3.05v-1.78h7.98v1.78h-3.05Z"/><path class="cls-1" d="M182.85,58.21v-4h-4.2v4h-1.88v-9.64h1.88v3.88h4.2v-3.88h1.89v9.64h-1.89Z"/><path class="cls-1" d="M191.64,53.39c0-3.07,2.33-5.03,4.91-5.03s4.04,1.63,4.42,3.2l-1.77,.56c-.23-.92-.98-1.94-2.65-1.94-1.44,0-2.96,1.03-2.96,3.22,0,2.05,1.44,3.18,2.99,3.18,1.65,0,2.45-1.07,2.71-1.97l1.75,.53c-.37,1.48-1.75,3.28-4.46,3.28s-4.94-1.94-4.94-5.02Z"/><path class="cls-1" d="M209.63,58.21v-4h-4.2v4h-1.88v-9.64h1.88v3.88h4.2v-3.88h1.89v9.64h-1.89Z"/><path class="cls-1" d="M220.42,56.01h-3.92l-.8,2.2h-1.99l3.7-9.64h2.18l3.67,9.64h-2.04l-.8-2.2Zm-3.29-1.71h2.67l-1.33-3.64-1.33,3.64Z"/><path class="cls-1" d="M225.45,58.21v-9.64h1.9v9.64h-1.9Z"/><path class="cls-1" d="M236.76,58.21l-4.38-6.84v6.84h-1.88v-9.64h2.34l4.01,6.38v-6.38h1.88v9.64h-1.97Z"/><path class="cls-1" d="M241.89,58.21v-9.64h1.88v7.85h4.3v1.79h-6.17Z"/><path class="cls-1" d="M250.46,58.21v-9.64h1.9v9.64h-1.9Z"/><path class="cls-1" d="M261.77,58.21l-4.38-6.84v6.84h-1.88v-9.64h2.34l4.01,6.38v-6.38h1.88v9.64h-1.97Z"/><path class="cls-1" d="M269.97,54.21l-1.2,1.32v2.68h-1.88v-9.64h1.88v4.37l3.86-4.37h2.46l-3.82,4.2,3.85,5.44h-2.35l-2.8-4Z"/></g><g><path class="cls-1" d="M88.33,37.79v-11.13l-4.57,11.13h-2.58l-4.57-11.04v11.04h-2.96v-15.88h4.08l4.77,11.47,4.66-11.47h4.21v15.88h-3.05Z"/><path class="cls-1" d="M96.91,31.45l2.71-.4c.63-.09,.83-.4,.83-.78,0-.78-.61-1.43-1.86-1.43s-2.02,.83-2.11,1.79l-2.64-.56c.18-1.72,1.77-3.63,4.73-3.63,3.49,0,4.79,1.97,4.79,4.19v5.42c0,.58,.07,1.37,.13,1.75h-2.73c-.07-.29-.11-.9-.11-1.32-.56,.87-1.61,1.64-3.25,1.64-2.35,0-3.79-1.59-3.79-3.32,0-1.97,1.46-3.07,3.29-3.34Zm3.54,1.88v-.49l-2.49,.38c-.76,.11-1.37,.54-1.37,1.39,0,.65,.47,1.28,1.43,1.28,1.25,0,2.42-.6,2.42-2.55Z"/><path class="cls-1" d="M112.64,29.73c-.34-.07-.63-.09-.9-.09-1.52,0-2.84,.74-2.84,3.11v5.04h-2.98v-11.02h2.89v1.64c.67-1.46,2.2-1.72,3.14-1.72,.25,0,.47,.02,.69,.04v3Z"/><path class="cls-1" d="M120.57,31.41l4.5,6.38h-3.65l-2.91-4.21-1.23,1.3v2.91h-2.98V21.57h2.98v9.3l3.81-4.1h3.9l-4.41,4.64Z"/><path class="cls-1" d="M135.75,34.63c-.56,1.9-2.31,3.49-5.02,3.49-3.02,0-5.69-2.17-5.69-5.89,0-3.52,2.6-5.8,5.42-5.8,3.4,0,5.44,2.17,5.44,5.71,0,.43-.05,.87-.05,.92h-7.88c.07,1.46,1.3,2.51,2.78,2.51,1.39,0,2.15-.69,2.51-1.68l2.49,.74Zm-2.78-3.61c-.05-1.1-.76-2.17-2.46-2.17-1.55,0-2.4,1.16-2.46,2.17h4.93Z"/><path class="cls-1" d="M141.49,26.77h2.22v2.64h-2.22v4.61c0,.96,.45,1.28,1.3,1.28,.36,0,.76-.04,.92-.09v2.46c-.27,.11-.81,.27-1.68,.27-2.15,0-3.49-1.28-3.49-3.41v-5.13h-1.99v-2.64h.56c1.16,0,1.7-.76,1.7-1.75v-1.55h2.69v3.29Z"/><path class="cls-1" d="M151.03,37.79v-15.88h5.69c4.52,0,7.84,2.93,7.84,7.95s-3.34,7.93-7.86,7.93h-5.67Zm5.55-2.87c2.6,0,4.77-1.61,4.77-5.06s-2.15-5.08-4.75-5.08h-2.49v10.15h2.46Z"/><path class="cls-1" d="M169.2,31.45l2.71-.4c.63-.09,.83-.4,.83-.78,0-.78-.61-1.43-1.86-1.43s-2.02,.83-2.11,1.79l-2.64-.56c.18-1.72,1.77-3.63,4.73-3.63,3.49,0,4.79,1.97,4.79,4.19v5.42c0,.58,.07,1.37,.13,1.75h-2.73c-.07-.29-.11-.9-.11-1.32-.56,.87-1.61,1.64-3.25,1.64-2.35,0-3.79-1.59-3.79-3.32,0-1.97,1.46-3.07,3.29-3.34Zm3.54,1.88v-.49l-2.49,.38c-.76,.11-1.37,.54-1.37,1.39,0,.65,.47,1.28,1.43,1.28,1.25,0,2.42-.6,2.42-2.55Z"/><path class="cls-1" d="M181.81,26.77h2.22v2.64h-2.22v4.61c0,.96,.45,1.28,1.3,1.28,.36,0,.76-.04,.92-.09v2.46c-.27,.11-.81,.27-1.68,.27-2.15,0-3.49-1.28-3.49-3.41v-5.13h-1.99v-2.64h.56c1.16,0,1.7-.76,1.7-1.75v-1.55h2.69v3.29Z"/><path class="cls-1" d="M188.8,31.45l2.71-.4c.63-.09,.83-.4,.83-.78,0-.78-.6-1.43-1.86-1.43s-2.02,.83-2.11,1.79l-2.64-.56c.18-1.72,1.77-3.63,4.73-3.63,3.49,0,4.79,1.97,4.79,4.19v5.42c0,.58,.07,1.37,.13,1.75h-2.73c-.07-.29-.11-.9-.11-1.32-.56,.87-1.61,1.64-3.25,1.64-2.35,0-3.79-1.59-3.79-3.32,0-1.97,1.46-3.07,3.29-3.34Zm3.54,1.88v-.49l-2.49,.38c-.76,.11-1.37,.54-1.37,1.39,0,.65,.47,1.28,1.43,1.28,1.25,0,2.42-.6,2.42-2.55Z"/></g></g><path class="cls-1" d="M36.34,16.92l-20,11.54v23.08l20,11.54,20-11.54V28.46l-20-11.54Zm11.52,29.73l-11.52,6.65-11.52-6.65v-13.3l11.52-6.65,11.52,6.65v13.3Z"/></g></g></svg>