<svg width="38" height="42" viewBox="0 0 38 42" fill="none" xmlns="http://www.w3.org/2000/svg">
<g filter="url(#filter0_b_327_538)">
<rect x="1" y="3" width="36" height="36" rx="18" fill="#E2FFF8" fill-opacity="0.01"/>
<rect x="1" y="3" width="36" height="36" rx="18" fill="url(#paint0_radial_327_538)"/>
<rect x="1.5" y="3.5" width="35" height="35" rx="17.5" stroke="#3FEAC1" stroke-opacity="0.1"/>
</g>
<path d="M23.07 16.8744V14.8773C23.07 13.9773 22.221 13.3197 21.3494 13.5443L14.0706 15.423C13.5428 15.5592 13.1738 16.0352 13.1738 16.58V26.7129C13.1738 27.6997 13.9741 28.5 14.9609 28.5H23.0383C24.0259 28.5 24.8254 27.6997 24.8254 26.7129V18.8609C24.8254 17.8733 24.0259 17.073 23.0383 17.073H13.1738" stroke="#3FEAC1" stroke-width="1.25" stroke-linecap="round" stroke-linejoin="round"/>
<path d="M16.9375 21.0605H19.2581M16.9375 24.2318H21.0606" stroke="#3FEAC1" stroke-width="1.25" stroke-linecap="round" stroke-linejoin="round"/>
<g filter="url(#filter1_f_327_538)">
<path d="M23.07 16.8744V14.8773C23.07 13.9773 22.221 13.3197 21.3494 13.5443L14.0706 15.423C13.5428 15.5592 13.1738 16.0352 13.1738 16.58V26.7129C13.1738 27.6997 13.9741 28.5 14.9609 28.5H23.0383C24.0259 28.5 24.8254 27.6997 24.8254 26.7129V18.8609C24.8254 17.8733 24.0259 17.073 23.0383 17.073H13.1738" stroke="#3FEAC1" stroke-width="1.25" stroke-linecap="round" stroke-linejoin="round"/>
<path d="M16.9375 21.0605H19.2581M16.9375 24.2318H21.0606" stroke="#3FEAC1" stroke-width="1.25" stroke-linecap="round" stroke-linejoin="round"/>
</g>
<defs>
<filter id="filter0_b_327_538" x="-149" y="-147" width="336" height="336" filterUnits="userSpaceOnUse" color-interpolation-filters="sRGB">
<feFlood flood-opacity="0" result="BackgroundImageFix"/>
<feGaussianBlur in="BackgroundImageFix" stdDeviation="75"/>
<feComposite in2="SourceAlpha" operator="in" result="effect1_backgroundBlur_327_538"/>
<feBlend mode="normal" in="SourceGraphic" in2="effect1_backgroundBlur_327_538" result="shape"/>
</filter>
<filter id="filter1_f_327_538" x="-3" y="-1" width="44" height="44" filterUnits="userSpaceOnUse" color-interpolation-filters="sRGB">
<feFlood flood-opacity="0" result="BackgroundImageFix"/>
<feBlend mode="normal" in="SourceGraphic" in2="BackgroundImageFix" result="shape"/>
<feGaussianBlur stdDeviation="6" result="effect1_foregroundBlur_327_538"/>
</filter>
<radialGradient id="paint0_radial_327_538" cx="0" cy="0" r="1" gradientUnits="userSpaceOnUse" gradientTransform="translate(19 21) rotate(45) scale(25.4558)">
<stop offset="0.496666" stop-color="#3FEAC1" stop-opacity="0"/>
<stop offset="1" stop-color="#3FEAC1" stop-opacity="0.03"/>
</radialGradient>
</defs>
</svg>
