<svg width="40" height="42" viewBox="0 0 40 42" fill="none" xmlns="http://www.w3.org/2000/svg">
<g filter="url(#filter0_b_327_564)">
<rect x="2" y="3" width="36" height="36" rx="18" fill="#E2FFF8" fill-opacity="0.01"/>
<rect x="2" y="3" width="36" height="36" rx="18" fill="url(#paint0_radial_327_564)"/>
<rect x="2.5" y="3.5" width="35" height="35" rx="17.5" stroke="#3FEAC1" stroke-opacity="0.1"/>
</g>
<path d="M21.0117 23.9199L21.6117 24.7381C21.7687 24.9522 22.0183 25.0787 22.2837 25.0787H24.7346" stroke="#3FEAC1" stroke-width="1.25" stroke-linecap="round" stroke-linejoin="round"/>
<path d="M26.6566 24.1976C27.0506 24.646 27.0064 25.329 26.5579 25.723C26.1095 26.117 25.4266 26.0728 25.0326 25.6244C24.6386 25.176 24.6827 24.493 25.1311 24.099C25.5796 23.705 26.2626 23.7491 26.6566 24.1976Z" stroke="#3FEAC1" stroke-width="1.25" stroke-linecap="round" stroke-linejoin="round"/>
<path d="M23.0137 21.5774L23.8793 21.5211C24.2231 21.4988 24.5178 21.267 24.6205 20.9381L25.2914 18.791" stroke="#3FEAC1" stroke-width="1.25" stroke-linecap="round" stroke-linejoin="round"/>
<path d="M25.4522 16.758C26.0271 16.5972 26.6235 16.933 26.7842 17.5079C26.9449 18.0828 26.6091 18.6791 26.0343 18.8399C25.4594 19.0006 24.8631 18.6649 24.7023 18.09C24.5416 17.5151 24.8773 16.9187 25.4522 16.758Z" stroke="#3FEAC1" stroke-width="1.25" stroke-linecap="round" stroke-linejoin="round"/>
<path d="M21.3586 18.2359L21.6479 17.5887C21.8161 17.2125 21.6841 16.7698 21.3372 16.5472L19.293 15.2354" stroke="#3FEAC1" stroke-width="1.25" stroke-linecap="round" stroke-linejoin="round"/>
<path d="M17.3399 14.575C17.3431 13.9781 17.8296 13.4968 18.4266 13.5C19.0235 13.5032 19.5048 13.9898 19.5016 14.5867C19.4983 15.1836 19.0118 15.6649 18.4149 15.6617C17.8179 15.6585 17.3366 15.172 17.3399 14.575Z" stroke="#3FEAC1" stroke-width="1.25" stroke-linecap="round" stroke-linejoin="round"/>
<path d="M17.7577 18.8961L16.978 18.5966C16.6003 18.4514 16.1729 18.5986 15.9646 18.9456L14.8398 20.8196" stroke="#3FEAC1" stroke-width="1.25" stroke-linecap="round" stroke-linejoin="round"/>
<path d="M14.1551 22.8023C13.5581 22.8023 13.0742 22.3184 13.0742 21.7215C13.0742 21.1245 13.5581 20.6406 14.1551 20.6406C14.752 20.6406 15.236 21.1245 15.236 21.7215C15.236 22.3184 14.752 22.8023 14.1551 22.8023Z" stroke="#3FEAC1" stroke-width="1.25" stroke-linecap="round" stroke-linejoin="round"/>
<path d="M17.7065 23.0215L17.2784 23.7524C17.1353 23.9966 17.126 24.2966 17.2536 24.5493L18.1567 26.3376" stroke="#3FEAC1" stroke-width="1.25" stroke-linecap="round" stroke-linejoin="round"/>
<path d="M19.3379 27.9662C19.0362 28.4813 18.374 28.6542 17.8589 28.3525C17.3439 28.0508 17.1709 27.3887 17.4726 26.8736C17.7744 26.3585 18.4365 26.1856 18.9516 26.4872C19.4667 26.789 19.6396 27.4512 19.3379 27.9662Z" stroke="#3FEAC1" stroke-width="1.25" stroke-linecap="round" stroke-linejoin="round"/>
<path d="M19.9968 24.0375C21.681 24.0375 23.0463 22.6722 23.0463 20.988C23.0463 19.3038 21.681 17.9385 19.9968 17.9385C18.3126 17.9385 16.9473 19.3038 16.9473 20.988C16.9473 22.6722 18.3126 24.0375 19.9968 24.0375Z" stroke="#3FEAC1" stroke-width="1.25" stroke-linecap="round" stroke-linejoin="round"/>
<g filter="url(#filter1_f_327_564)">
<path d="M21.0117 23.9199L21.6117 24.7381C21.7687 24.9522 22.0183 25.0787 22.2837 25.0787H24.7346" stroke="#3FEAC1" stroke-width="1.25" stroke-linecap="round" stroke-linejoin="round"/>
<path d="M26.6566 24.1976C27.0506 24.646 27.0064 25.329 26.5579 25.723C26.1095 26.117 25.4266 26.0728 25.0326 25.6244C24.6386 25.176 24.6827 24.493 25.1311 24.099C25.5796 23.705 26.2626 23.7491 26.6566 24.1976Z" stroke="#3FEAC1" stroke-width="1.25" stroke-linecap="round" stroke-linejoin="round"/>
<path d="M23.0137 21.5774L23.8793 21.5211C24.2231 21.4988 24.5178 21.267 24.6205 20.9381L25.2914 18.791" stroke="#3FEAC1" stroke-width="1.25" stroke-linecap="round" stroke-linejoin="round"/>
<path d="M25.4522 16.758C26.0271 16.5972 26.6235 16.933 26.7842 17.5079C26.9449 18.0828 26.6091 18.6791 26.0343 18.8399C25.4594 19.0006 24.8631 18.6649 24.7023 18.09C24.5416 17.5151 24.8773 16.9187 25.4522 16.758Z" stroke="#3FEAC1" stroke-width="1.25" stroke-linecap="round" stroke-linejoin="round"/>
<path d="M21.3586 18.2359L21.6479 17.5887C21.8161 17.2125 21.6841 16.7698 21.3372 16.5472L19.293 15.2354" stroke="#3FEAC1" stroke-width="1.25" stroke-linecap="round" stroke-linejoin="round"/>
<path d="M17.3399 14.575C17.3431 13.9781 17.8296 13.4968 18.4266 13.5C19.0235 13.5032 19.5048 13.9898 19.5016 14.5867C19.4983 15.1836 19.0118 15.6649 18.4149 15.6617C17.8179 15.6585 17.3366 15.172 17.3399 14.575Z" stroke="#3FEAC1" stroke-width="1.25" stroke-linecap="round" stroke-linejoin="round"/>
<path d="M17.7577 18.8961L16.978 18.5966C16.6003 18.4514 16.1729 18.5986 15.9646 18.9456L14.8398 20.8196" stroke="#3FEAC1" stroke-width="1.25" stroke-linecap="round" stroke-linejoin="round"/>
<path d="M14.1551 22.8023C13.5581 22.8023 13.0742 22.3184 13.0742 21.7215C13.0742 21.1245 13.5581 20.6406 14.1551 20.6406C14.752 20.6406 15.236 21.1245 15.236 21.7215C15.236 22.3184 14.752 22.8023 14.1551 22.8023Z" stroke="#3FEAC1" stroke-width="1.25" stroke-linecap="round" stroke-linejoin="round"/>
<path d="M17.7065 23.0215L17.2784 23.7524C17.1353 23.9966 17.126 24.2966 17.2536 24.5493L18.1567 26.3376" stroke="#3FEAC1" stroke-width="1.25" stroke-linecap="round" stroke-linejoin="round"/>
<path d="M19.3379 27.9662C19.0362 28.4813 18.374 28.6542 17.8589 28.3525C17.3439 28.0508 17.1709 27.3887 17.4726 26.8736C17.7744 26.3585 18.4365 26.1856 18.9516 26.4872C19.4667 26.789 19.6396 27.4512 19.3379 27.9662Z" stroke="#3FEAC1" stroke-width="1.25" stroke-linecap="round" stroke-linejoin="round"/>
<path d="M19.9968 24.0375C21.681 24.0375 23.0463 22.6722 23.0463 20.988C23.0463 19.3038 21.681 17.9385 19.9968 17.9385C18.3126 17.9385 16.9473 19.3038 16.9473 20.988C16.9473 22.6722 18.3126 24.0375 19.9968 24.0375Z" stroke="#3FEAC1" stroke-width="1.25" stroke-linecap="round" stroke-linejoin="round"/>
</g>
<defs>
<filter id="filter0_b_327_564" x="-148" y="-147" width="336" height="336" filterUnits="userSpaceOnUse" color-interpolation-filters="sRGB">
<feFlood flood-opacity="0" result="BackgroundImageFix"/>
<feGaussianBlur in="BackgroundImageFix" stdDeviation="75"/>
<feComposite in2="SourceAlpha" operator="in" result="effect1_backgroundBlur_327_564"/>
<feBlend mode="normal" in="SourceGraphic" in2="effect1_backgroundBlur_327_564" result="shape"/>
</filter>
<filter id="filter1_f_327_564" x="-2" y="-1" width="44" height="44" filterUnits="userSpaceOnUse" color-interpolation-filters="sRGB">
<feFlood flood-opacity="0" result="BackgroundImageFix"/>
<feBlend mode="normal" in="SourceGraphic" in2="BackgroundImageFix" result="shape"/>
<feGaussianBlur stdDeviation="6" result="effect1_foregroundBlur_327_564"/>
</filter>
<radialGradient id="paint0_radial_327_564" cx="0" cy="0" r="1" gradientUnits="userSpaceOnUse" gradientTransform="translate(20 21) rotate(45) scale(25.4558)">
<stop offset="0.496666" stop-color="#3FEAC1" stop-opacity="0"/>
<stop offset="1" stop-color="#3FEAC1" stop-opacity="0.03"/>
</radialGradient>
</defs>
</svg>
