<svg width="16" height="16" viewBox="0 0 16 16" fill="none" xmlns="http://www.w3.org/2000/svg">
<g clip-path="url(#clip0_327_157)">
<path d="M6.74456 8.42486C7.5148 8.86941 7.89991 9.09169 8.32288 9.09206C8.74582 9.09243 9.13132 8.87081 9.90235 8.42761L14.8172 5.60243C15.039 5.4749 15.1758 5.23849 15.1758 4.98257C15.1758 4.72664 15.039 4.49024 14.8172 4.3627L9.90058 1.53649C9.13038 1.09376 8.74528 0.872394 8.32275 0.872559C7.90021 0.872724 7.5153 1.09439 6.74545 1.53772L2.51882 3.97169C2.48748 3.98973 2.47182 3.99876 2.45722 4.00731C1.01344 4.8525 0.121423 6.39554 0.109496 8.06848C0.109375 8.08539 0.109375 8.10345 0.109375 8.13961C0.109375 8.1757 0.109375 8.19377 0.109495 8.21065C0.121396 9.88172 1.01142 11.4233 2.45263 12.2692C2.4672 12.2777 2.48285 12.2867 2.51411 12.3048L5.16167 13.8334C6.70439 14.7241 7.47574 15.1695 8.32283 15.1698C9.16989 15.1701 9.94156 14.7252 11.4849 13.8355L14.2797 12.2244C15.0525 11.7789 15.4389 11.5562 15.651 11.189C15.8632 10.8218 15.8632 10.3758 15.8632 9.48379V7.76064C15.8632 7.5132 15.7292 7.28516 15.513 7.16475C15.3038 7.04824 15.0488 7.04996 14.8412 7.1693L9.11035 10.4636C8.72586 10.6846 8.53358 10.7951 8.32263 10.7952C8.11165 10.7952 7.91933 10.6848 7.53469 10.4641L3.6559 8.23756C3.46161 8.12603 3.36445 8.07025 3.28642 8.06018C3.10853 8.03721 2.93747 8.13688 2.86971 8.30296C2.84 8.3758 2.84059 8.48782 2.84179 8.71185C2.84268 8.87677 2.84312 8.95923 2.85853 9.0351C2.89307 9.20497 2.98242 9.35876 3.11291 9.47288C3.17117 9.52383 3.24258 9.56507 3.38545 9.6475L7.5325 12.041C7.91815 12.2636 8.11096 12.3749 8.32268 12.375C8.53442 12.375 8.72731 12.2638 9.11306 12.0415L14.1961 9.11138C14.3279 9.03542 14.3938 8.99743 14.4432 9.02599C14.4926 9.05454 14.4926 9.13058 14.4926 9.28268V10.0642C14.4926 10.2873 14.4926 10.3987 14.4395 10.4906C14.3865 10.5823 14.2899 10.638 14.0967 10.7494L9.90415 13.1661C9.13231 13.6111 8.74638 13.8335 8.32278 13.8333C7.89915 13.8331 7.51342 13.6103 6.742 13.1647L2.81952 10.8988C2.80706 10.8916 2.80083 10.888 2.79502 10.8846C1.97258 10.4041 1.4651 9.52484 1.46034 8.57228C1.46031 8.56556 1.46031 8.55837 1.46031 8.54397V7.82653C1.46031 7.30067 1.74038 6.81462 2.19533 6.55091C2.59734 6.3179 3.09322 6.31744 3.49565 6.54971L6.74456 8.42486Z" fill="url(#paint0_linear_327_157)"/>
</g>
<defs>
<linearGradient id="paint0_linear_327_157" x1="0.421736" y1="3.95255" x2="16.3571" y2="5.23364" gradientUnits="userSpaceOnUse">
<stop stop-color="#BAF7E9"/>
<stop offset="1" stop-color="#A3F5E1"/>
</linearGradient>
<clipPath id="clip0_327_157">
<rect width="16" height="16" fill="white"/>
</clipPath>
</defs>
</svg>
