<svg width="480" height="165" viewBox="0 0 480 165" fill="none" xmlns="http://www.w3.org/2000/svg">
<circle cx="198" cy="98" r="2" fill="#3FEAC1" fill-opacity="0.1"/>
<circle cx="281" cy="98" r="2" fill="#3FEAC1" fill-opacity="0.1"/>
<g filter="url(#filter0_b_327_369)">
<rect x="213" y="71" width="54" height="54" rx="27" fill="#E2FFF8" fill-opacity="0.01"/>
<rect x="213" y="71" width="54" height="54" rx="27" fill="url(#paint0_radial_327_369)"/>
<rect x="213.5" y="71.5" width="53" height="53" rx="26.5" stroke="#3FEAC1" stroke-opacity="0.1"/>
</g>
<path d="M228.829 86.9123L228.319 86.79C226.905 87.6196 226.022 89.1324 226 90.755H231.251C231.107 89.3871 230.727 88.3564 230.123 87.6903C229.763 87.2934 229.328 87.0318 228.829 86.9123Z" fill="white"/>
<path d="M250.682 86.7891L250.172 86.9113C249.674 87.0308 249.239 87.2924 248.878 87.6893C248.274 88.3554 247.894 89.3861 247.75 90.754H253.001C252.98 89.1314 252.096 87.6186 250.682 86.7891Z" fill="white"/>
<path d="M248.975 86.8964C249.008 86.8724 249.042 86.849 249.076 86.8264C249.14 86.7831 249.207 86.7419 249.276 86.7035C249.466 86.597 249.669 86.5112 249.878 86.4473C249.69 86.3704 249.486 86.3024 249.272 86.2434C248.456 86.0188 247.738 86.0017 247.709 86.001H247.42C247.249 86.001 247.077 86.0099 246.908 86.0264C246.741 86.0436 246.574 86.069 246.411 86.1019C246.371 86.1102 246.331 86.1191 246.292 86.1287L246.258 86.1369C245.906 86.22 245.566 86.3395 245.249 86.4913C245.103 86.5613 244.959 86.6382 244.822 86.7206C244.753 86.7618 244.685 86.8051 244.619 86.8497C244.486 86.939 244.356 87.0351 244.232 87.1361C244.048 87.2872 243.872 87.4533 243.71 87.6291C243.549 87.8056 243.398 87.9945 243.264 88.1915C243.082 88.4566 242.927 88.7402 242.801 89.0348C242.737 89.1831 242.68 89.3369 242.632 89.4908C242.584 89.6453 242.542 89.8053 242.509 89.966C242.475 90.1287 242.449 90.2942 242.433 90.4583C242.422 90.5634 242.415 90.6774 242.41 90.8161L242.409 90.8559C242.408 90.8923 242.406 90.9287 242.406 90.9651V104.906C242.55 104.899 242.695 104.888 242.837 104.869C243.157 104.828 243.473 104.756 243.777 104.654C243.852 104.629 243.927 104.602 244 104.574C244.146 104.518 244.291 104.453 244.431 104.382C244.57 104.313 244.708 104.235 244.84 104.152C244.906 104.111 244.971 104.068 245.035 104.024C245.178 103.924 245.317 103.817 245.449 103.703C245.493 103.665 245.536 103.626 245.579 103.587C246.578 102.662 247.15 101.357 247.15 100.007V92.1105C247.15 91.6621 247.17 91.224 247.211 90.8092C247.231 90.5936 247.254 90.4054 247.281 90.2338C247.315 90.0072 247.357 89.7874 247.406 89.58C247.478 89.2683 247.567 88.9737 247.671 88.7045C247.879 88.1634 248.152 87.7047 248.483 87.34C248.634 87.1739 248.799 87.0242 248.974 86.8964H248.975Z" fill="white"/>
<path d="M236.591 90.8158C236.524 88.5792 234.941 86.6551 232.742 86.136C232.359 86.046 231.969 86 231.58 86H231.29C231.261 86 230.545 86.0179 229.729 86.2424C229.63 86.2699 229.523 86.3028 229.412 86.3399C229.347 86.3619 229.282 86.3852 229.217 86.41C229.184 86.4223 229.153 86.4347 229.123 86.447C229.128 86.4484 229.133 86.4498 229.138 86.4518C229.201 86.4711 229.265 86.493 229.329 86.5178C229.5 86.583 229.667 86.6654 229.824 86.7615C229.928 86.8247 230.029 86.8955 230.125 86.9717C230.193 87.0252 230.259 87.0822 230.323 87.142C230.39 87.2038 230.455 87.2704 230.517 87.3391C230.627 87.4606 230.733 87.5945 230.829 87.736C230.974 87.9482 231.106 88.1851 231.22 88.4405C231.508 89.0867 231.7 89.8833 231.788 90.8089C231.829 91.2244 231.849 91.6625 231.849 92.1102V100.007C231.849 100.495 231.921 100.976 232.064 101.438C232.11 101.588 232.164 101.737 232.225 101.882C232.285 102.026 232.353 102.168 232.427 102.305C232.647 102.714 232.925 103.091 233.253 103.425C233.416 103.59 233.591 103.746 233.775 103.887C234.278 104.273 234.842 104.555 235.451 104.725C235.682 104.791 235.922 104.839 236.162 104.87C236.305 104.889 236.449 104.901 236.593 104.907V90.9662C236.593 90.9298 236.591 90.8934 236.59 90.857L236.589 90.8172L236.591 90.8158Z" fill="white"/>
<path d="M241.945 105.388C241.893 104.923 241.865 104.421 241.865 103.893V94.6998C241.865 94.4965 241.851 94.2837 241.823 94.068C241.658 92.8004 241.006 91.6612 239.989 90.8598L239.853 90.7534H241.881C241.956 88.8066 243.056 87.0631 244.782 86.1367H234.219C235.961 87.072 237.067 88.8409 237.121 90.811V105.036C237.121 107.773 239.37 110 242.135 110H242.425C242.472 109.999 243.568 109.971 244.593 109.554C244.059 109.394 243.591 109.094 243.198 108.661C242.531 107.927 242.11 106.825 241.945 105.385V105.388Z" fill="white"/>
<line x1="184" y1="98.5" x2="-4.37114e-08" y2="98.5" stroke="#3FEAC1" stroke-opacity="0.1"/>
<line x1="480" y1="98.5" x2="296" y2="98.5" stroke="#3FEAC1" stroke-opacity="0.1"/>
<path d="M321.5 82.5C321.5 71.7316 319.379 61.0687 315.258 51.12C311.137 41.1713 305.097 32.1316 297.483 24.5172C289.868 16.9028 280.829 10.8628 270.88 6.74188C260.931 2.62099 250.268 0.5 239.5 0.5C228.732 0.5 218.069 2.62099 208.12 6.74188C198.171 10.8628 189.132 16.9028 181.517 24.5172C173.903 32.1317 167.863 41.1713 163.742 51.12C159.621 61.0687 157.5 71.7316 157.5 82.5" stroke="#3FEAC1" stroke-opacity="0.1"/>
<path d="M301.5 82.5C301.5 74.358 299.896 66.2958 296.781 58.7736C293.665 51.2514 289.098 44.4166 283.341 38.6594C277.583 32.9021 270.749 28.3353 263.226 25.2195C255.704 22.1037 247.642 20.5 239.5 20.5C231.358 20.5 223.296 22.1037 215.774 25.2195C208.251 28.3353 201.417 32.9021 195.659 38.6594C189.902 44.4166 185.335 51.2514 182.219 58.7736C179.104 66.2958 177.5 74.358 177.5 82.5" stroke="#3FEAC1" stroke-opacity="0.1"/>
<defs>
<filter id="filter0_b_327_369" x="63" y="-79" width="354" height="354" filterUnits="userSpaceOnUse" color-interpolation-filters="sRGB">
<feFlood flood-opacity="0" result="BackgroundImageFix"/>
<feGaussianBlur in="BackgroundImageFix" stdDeviation="75"/>
<feComposite in2="SourceAlpha" operator="in" result="effect1_backgroundBlur_327_369"/>
<feBlend mode="normal" in="SourceGraphic" in2="effect1_backgroundBlur_327_369" result="shape"/>
</filter>
<radialGradient id="paint0_radial_327_369" cx="0" cy="0" r="1" gradientUnits="userSpaceOnUse" gradientTransform="translate(240 98) rotate(45) scale(38.1838)">
<stop offset="0.496666" stop-color="#3FEAC1" stop-opacity="0"/>
<stop offset="1" stop-color="#3FEAC1" stop-opacity="0.03"/>
</radialGradient>
</defs>
</svg>
