<svg width="141" height="20" viewBox="0 0 141 20" fill="none" xmlns="http://www.w3.org/2000/svg">
<path d="M15.7407 14.3304C15.7407 11.9241 17.7589 10.9179 20.9295 10.9179H28.5184V10.6679C28.5184 8.63662 27.1114 7.63037 23.6352 7.63037C20.3374 7.63037 19.2678 8.53662 19.2678 9.58662C19.2678 9.66162 19.2678 9.73662 19.2933 9.88662H16.1737C16.1482 9.66162 16.1482 9.48662 16.1482 9.43662C16.1482 7.03037 18.4465 5.34912 23.7116 5.34912C28.9768 5.34912 31.7908 7.50537 31.7908 10.9679V17.9929H28.5184C28.5948 17.1429 28.6457 15.8616 28.6712 15.0054H28.6457C28.0855 16.9866 26.271 18.2179 22.0245 18.2179C17.4215 18.2179 15.7344 16.2866 15.7344 14.3304H15.7407ZM28.5184 12.8991V12.8241H21.6935C19.7771 12.8241 18.7266 13.0241 18.7266 14.2054C18.7266 15.0304 19.4397 15.9616 22.6612 15.9616C26.6976 15.9616 28.512 14.3554 28.512 12.8991H28.5184Z" fill="url(#paint0_linear_327_341)"/>
<path d="M33.3984 11.8183C33.3984 8.55576 35.8496 5.34326 42.0633 5.34326C48.277 5.34326 50.7281 8.55576 50.7281 11.8183C50.7281 15.0808 48.328 18.2433 42.0633 18.2433C35.7986 18.2433 33.3984 15.1058 33.3984 11.8183ZM47.4494 11.8183C47.4494 9.76201 45.9914 7.85576 42.0569 7.85576C38.1224 7.85576 36.6645 9.76201 36.6645 11.8183C36.6645 13.8745 38.0969 15.7308 42.0569 15.7308C46.0169 15.7308 47.4494 13.8745 47.4494 11.8183Z" fill="url(#paint1_linear_327_341)"/>
<path d="M2.62938 0.000488281H17.7308C17.7754 0.000488281 17.8136 0.0379914 17.8136 0.0817414V0.856738C17.8136 2.28174 16.6358 3.43799 15.1842 3.43799H0.0827681C0.0382024 3.43799 0 3.40049 0 3.35674V2.58174C0 1.15674 1.17781 0.000488281 2.62938 0.000488281Z" fill="url(#paint2_linear_327_341)"/>
<path d="M12.7265 17.838C12.2936 17.8692 10.8102 17.763 10.8102 14.7442V6.66924C10.8102 4.88174 9.33952 3.43799 7.51869 3.43799H7.30859V15.4255C7.30859 17.2317 8.79836 18.6942 10.6383 18.6942H10.8166C10.8166 18.6942 11.9753 18.6817 12.7711 18.1192C12.8284 18.0817 12.8538 18.0192 12.8538 17.9505C12.8538 17.888 12.8029 17.838 12.7392 17.8442L12.7265 17.838Z" fill="url(#paint3_linear_327_341)"/>
<path d="M74.8965 2.82422H84.1089C88.349 2.82422 89.8324 4.54922 89.8324 6.65547C89.8324 8.13047 88.9856 9.43047 87.2985 9.83672V9.86172C89.5077 10.1742 90.6537 11.6305 90.6537 13.218C90.6537 15.793 89.0111 17.5617 85.1339 17.5617H74.8965V2.83047V2.82422ZM85.0893 9.36172C87.394 9.36172 88.489 8.19922 88.489 6.83047C88.489 5.39922 87.4386 4.12422 83.9943 4.12422H76.3735V9.36172H85.0829H85.0893ZM84.771 16.2555C88.0115 16.2555 89.2403 14.9555 89.2403 13.0992C89.2403 11.7305 87.916 10.5492 85.2739 10.5492H76.3799V16.2555H84.771Z" fill="url(#paint4_linear_327_341)"/>
<path d="M92.4102 14.3742C92.4102 12.293 94.3265 11.5055 97.1341 11.5055H104.819V11.168C104.819 8.88672 103.157 7.44922 99.2987 7.44922C95.7399 7.44922 94.1673 8.52422 94.1673 10.0492C94.1673 10.118 94.1673 10.2055 94.1928 10.3617H92.824C92.7985 10.1617 92.7985 10.0242 92.7985 9.98047C92.7985 7.74297 94.9886 6.26172 99.2987 6.26172C103.997 6.26172 106.232 8.34297 106.232 11.2742V17.543H104.819C104.863 16.6055 104.889 15.3742 104.908 14.3867H104.882C104.29 16.3805 102.145 17.743 98.1337 17.743C94.1228 17.743 92.4102 16.1555 92.4102 14.3617V14.3742ZM104.812 12.6055V12.5617H97.2869C94.9122 12.5617 93.7726 13.0555 93.7726 14.3555C93.7726 15.3867 94.5493 16.5742 98.1973 16.5742C102.781 16.5742 104.812 14.5117 104.812 12.6117V12.6055Z" fill="url(#paint5_linear_327_341)"/>
<path d="M108.299 6.49941H109.713L109.687 9.81191H109.732C110.687 7.39316 112.991 6.27441 116.595 6.27441C121.593 6.27441 123.299 8.55566 123.299 11.2869V17.5557H121.886V11.5994C121.886 9.20566 120.587 7.52441 116.277 7.52441C112.832 7.52441 109.706 9.09316 109.706 12.4307V17.5557H108.293V6.49316L108.299 6.49941Z" fill="url(#paint6_linear_327_341)"/>
<path d="M125.542 1.88749H126.955V13.2375H126.98L138.224 6.49999H140.547L131.902 11.5812L140.999 17.5562H138.625L130.781 12.3375L126.949 14.575V17.55H125.535V1.875L125.542 1.88749Z" fill="url(#paint7_linear_327_341)"/>
<path d="M64.7157 3.8588H66.8638V16.2796C66.8638 18.3314 68.5199 20 70.5551 20H70.7525C70.7647 20 72.0477 19.9773 72.9171 19.3467C72.9614 19.3142 72.9881 19.2597 72.9881 19.2009C72.9881 19.1832 72.9809 19.1654 72.9675 19.1532C72.9547 19.1415 72.9383 19.1354 72.9213 19.1366C72.6473 19.1581 72.1152 19.1268 71.6328 18.6768C71.0083 18.0945 70.6918 17.0242 70.6918 15.4952V6.14518C70.6918 5.30937 70.4196 4.52071 69.905 3.86554L69.8449 3.789L69.939 3.76757C71.614 3.38671 72.7834 1.91164 72.7834 0.179407C72.7834 0.0802126 72.7038 0 72.6054 0H56.4687C54.456 0 52.8181 1.6508 52.8181 3.67939C52.8181 3.77859 52.8977 3.8588 52.9961 3.8588H55.6899L55.6188 3.95616C55.1565 4.59052 54.9122 5.34244 54.9122 6.13048V15.4811C54.9122 17.0101 54.5957 18.0804 53.9712 18.6627C53.4888 19.1128 52.956 19.1446 52.6821 19.1226C52.6651 19.1219 52.6486 19.1268 52.6359 19.1391C52.6225 19.1513 52.6152 19.1685 52.6152 19.1868C52.6152 19.2456 52.642 19.3001 52.6863 19.3326C53.5569 19.9639 54.8393 19.9859 54.8521 19.9859H55.0489C57.0847 19.9859 58.7402 18.3168 58.7402 16.2655V3.85941H60.8859V18.0571C60.8859 19.1207 61.7443 19.9865 62.8002 19.9865C63.856 19.9865 64.7144 19.1213 64.7144 18.0571V3.85941L64.7157 3.8588Z" fill="url(#paint8_linear_327_341)"/>
<defs>
<linearGradient id="paint0_linear_327_341" x1="16.0527" y1="8.12138" x2="32.2647" y2="9.5972" gradientUnits="userSpaceOnUse">
<stop stop-color="#BAF7E9"/>
<stop offset="1" stop-color="#A3F5E1"/>
</linearGradient>
<linearGradient id="paint1_linear_327_341" x1="33.742" y1="8.12225" x2="51.2168" y2="9.83501" gradientUnits="userSpaceOnUse">
<stop stop-color="#BAF7E9"/>
<stop offset="1" stop-color="#A3F5E1"/>
</linearGradient>
<linearGradient id="paint2_linear_327_341" x1="0.3532" y1="0.741013" x2="16.2203" y2="6.74015" gradientUnits="userSpaceOnUse">
<stop stop-color="#BAF7E9"/>
<stop offset="1" stop-color="#A3F5E1"/>
</linearGradient>
<linearGradient id="paint3_linear_327_341" x1="7.41854" y1="6.72457" x2="13.06" y2="6.87418" gradientUnits="userSpaceOnUse">
<stop stop-color="#BAF7E9"/>
<stop offset="1" stop-color="#A3F5E1"/>
</linearGradient>
<linearGradient id="paint4_linear_327_341" x1="75.2089" y1="5.99905" x2="91.1536" y2="7.24286" gradientUnits="userSpaceOnUse">
<stop stop-color="#BAF7E9"/>
<stop offset="1" stop-color="#A3F5E1"/>
</linearGradient>
<linearGradient id="paint5_linear_327_341" x1="92.6842" y1="8.73507" x2="106.648" y2="9.96154" gradientUnits="userSpaceOnUse">
<stop stop-color="#BAF7E9"/>
<stop offset="1" stop-color="#A3F5E1"/>
</linearGradient>
<linearGradient id="paint6_linear_327_341" x1="108.591" y1="8.70468" x2="123.725" y2="10.1735" gradientUnits="userSpaceOnUse">
<stop stop-color="#BAF7E9"/>
<stop offset="1" stop-color="#A3F5E1"/>
</linearGradient>
<linearGradient id="paint7_linear_327_341" x1="125.842" y1="5.25314" x2="141.504" y2="6.38007" gradientUnits="userSpaceOnUse">
<stop stop-color="#BAF7E9"/>
<stop offset="1" stop-color="#A3F5E1"/>
</linearGradient>
<linearGradient id="paint8_linear_327_341" x1="53.0192" y1="4.30851" x2="73.6461" y2="5.84151" gradientUnits="userSpaceOnUse">
<stop stop-color="#BAF7E9"/>
<stop offset="1" stop-color="#A3F5E1"/>
</linearGradient>
</defs>
</svg>
