<svg width="380" height="68" viewBox="0 0 380 68" fill="none" xmlns="http://www.w3.org/2000/svg">
<g filter="url(#filter0_b_2010_17)">
<rect x="162" y="12" width="56" height="56" rx="28" fill="#E2FFF8" fill-opacity="0.01"/>
<rect x="162" y="12" width="56" height="56" rx="28" fill="url(#paint0_radial_2010_17)"/>
<rect x="162.583" y="12.5833" width="54.8333" height="54.8333" rx="27.4167" stroke="#3FEAC1" stroke-opacity="0.1" stroke-width="1.16667"/>
</g>
<path d="M192.193 32.8349H194.653V47.3259C194.653 49.7197 196.55 51.6663 198.881 51.6663H199.107C199.121 51.6663 200.59 51.6399 201.586 50.9041C201.637 50.8662 201.667 50.8027 201.667 50.7341C201.667 50.7134 201.659 50.6927 201.644 50.6784C201.629 50.6648 201.61 50.6577 201.591 50.6591C201.277 50.6841 200.667 50.6477 200.115 50.1226C199.4 49.4432 199.037 48.1945 199.037 46.4108V35.5024C199.037 34.5273 198.726 33.6072 198.136 32.8428L198.067 32.7535L198.175 32.7285C200.093 32.2842 201.433 30.5633 201.433 28.5423C201.433 28.4266 201.342 28.333 201.229 28.333H182.747C180.442 28.333 178.566 30.2589 178.566 32.6256C178.566 32.7414 178.658 32.8349 178.77 32.8349H181.855L181.774 32.9485C181.244 33.6886 180.965 34.5658 180.965 35.4852V46.3943C180.965 48.1781 180.602 49.4268 179.887 50.1062C179.335 50.6312 178.724 50.6684 178.411 50.6427C178.391 50.6419 178.372 50.6477 178.358 50.6619C178.342 50.6762 178.334 50.6962 178.334 50.7177C178.334 50.7862 178.365 50.8498 178.415 50.8877C179.412 51.6242 180.881 51.6499 180.896 51.6499H181.121C183.453 51.6499 185.349 49.7026 185.349 47.3094V32.8357H187.806V49.3997C187.806 50.6405 188.79 51.6506 189.999 51.6506C191.208 51.6506 192.191 50.6412 192.191 49.3997V32.8357L192.193 32.8349Z" fill="#3FEAC1"/>
<g filter="url(#filter1_f_2010_17)">
<path d="M192.193 32.8349H194.653V47.3259C194.653 49.7197 196.55 51.6663 198.881 51.6663H199.107C199.121 51.6663 200.59 51.6399 201.586 50.9041C201.637 50.8662 201.667 50.8027 201.667 50.7341C201.667 50.7134 201.659 50.6927 201.644 50.6784C201.629 50.6648 201.61 50.6577 201.591 50.6591C201.277 50.6841 200.667 50.6477 200.115 50.1226C199.4 49.4432 199.037 48.1945 199.037 46.4108V35.5024C199.037 34.5273 198.726 33.6072 198.136 32.8428L198.067 32.7535L198.175 32.7285C200.093 32.2842 201.433 30.5633 201.433 28.5423C201.433 28.4266 201.342 28.333 201.229 28.333H182.747C180.442 28.333 178.566 30.2589 178.566 32.6256C178.566 32.7414 178.658 32.8349 178.77 32.8349H181.855L181.774 32.9485C181.244 33.6886 180.965 34.5658 180.965 35.4852V46.3943C180.965 48.1781 180.602 49.4268 179.887 50.1062C179.335 50.6312 178.724 50.6684 178.411 50.6427C178.391 50.6419 178.372 50.6477 178.358 50.6619C178.342 50.6762 178.334 50.6962 178.334 50.7177C178.334 50.7862 178.365 50.8498 178.415 50.8877C179.412 51.6242 180.881 51.6499 180.896 51.6499H181.121C183.453 51.6499 185.349 49.7026 185.349 47.3094V32.8357H187.806V49.3997C187.806 50.6405 188.79 51.6506 189.999 51.6506C191.208 51.6506 192.191 50.6412 192.191 49.3997V32.8357L192.193 32.8349Z" fill="#3FEAC1"/>
</g>
<path d="M0 0.999999H59.5C70.5457 0.999999 79.5 9.9543 79.5 21V21C79.5 32.0457 88.4543 41 99.5 41H146" stroke="#3FEAC1" stroke-opacity="0.1"/>
<path d="M380 0.999999H320.5C309.454 0.999999 300.5 9.9543 300.5 21V21C300.5 32.0457 291.546 41 280.5 41H234" stroke="#3FEAC1" stroke-opacity="0.1"/>
<defs>
<filter id="filter0_b_2010_17" x="-13" y="-163" width="406" height="406" filterUnits="userSpaceOnUse" color-interpolation-filters="sRGB">
<feFlood flood-opacity="0" result="BackgroundImageFix"/>
<feGaussianBlur in="BackgroundImageFix" stdDeviation="87.5"/>
<feComposite in2="SourceAlpha" operator="in" result="effect1_backgroundBlur_2010_17"/>
<feBlend mode="normal" in="SourceGraphic" in2="effect1_backgroundBlur_2010_17" result="shape"/>
</filter>
<filter id="filter1_f_2010_17" x="164.334" y="14.333" width="51.334" height="51.333" filterUnits="userSpaceOnUse" color-interpolation-filters="sRGB">
<feFlood flood-opacity="0" result="BackgroundImageFix"/>
<feBlend mode="normal" in="SourceGraphic" in2="BackgroundImageFix" result="shape"/>
<feGaussianBlur stdDeviation="7" result="effect1_foregroundBlur_2010_17"/>
</filter>
<radialGradient id="paint0_radial_2010_17" cx="0" cy="0" r="1" gradientUnits="userSpaceOnUse" gradientTransform="translate(190 40) rotate(45) scale(39.598)">
<stop offset="0.496666" stop-color="#3FEAC1" stop-opacity="0"/>
<stop offset="1" stop-color="#3FEAC1" stop-opacity="0.03"/>
</radialGradient>
</defs>
</svg>
